<svg xmlns="http://www.w3.org/2000/svg" width="181" height="352" viewBox="0 0 181 352">
    <defs>
        <linearGradient id="prefix__a" x1="50%" x2="50%" y1="0%" y2="100%">
            <stop offset="0%" stop-color="#C2F2F2"/>
            <stop offset="100%" stop-color="#E5FAFA"/>
        </linearGradient>
    </defs>
    <path fill="url(#prefix__a)" d="M39.252-40c16.08 0 31.291 2.18 45.416 6.102 2.825.871 4.128 3.922 2.825 6.32L5.955 139.211l.043.055-27.69 56.546c-8.004 16.528-1.298 36.537 15.143 44.583 4.76 2.393 9.735 3.48 14.494 3.48 12.33 0 24.012-6.96 29.852-18.703l10.167-20.879c.65-1.522 2.164-2.392 3.894-2.392h1.73L120 288.677 42.989 389.371c-1.514 1.74-3.894 2.175-5.84.87L-94.81 217.778c-44.35-63.634-35.348-144.07 8.026-198.003l-.217-.283 2.608-3.27C-55.492-17.553-12.466-40 39.252-40zm137.45 242c3.25 0 5.419 3.935 3.685 6.776-3.686 6.34-8.022 12.46-12.79 18.362L120.336 289 54 202h122.701zM113.664 69.462c1.512-3.283 6.266-3.283 7.779 0l29.172 60.19c1.297 2.846-.864 6.348-3.89 6.348H88.383c-3.241 0-5.402-3.502-3.89-6.347z"/>
</svg>
