<svg xmlns="http://www.w3.org/2000/svg" width="267" height="435" viewBox="0 0 267 435">
    <g fill="none" fill-rule="evenodd">
        <path fill="#ECA3A3" d="M93.755 86.34s94.342-27 112.01-25.67l-3.335 12.81s-86.803 26.61-92.08 31.89c-5.278 5.27-16.595-19.03-16.595-19.03" transform="matrix(-1 0 0 1 267 0)"/>
        <path fill="#E24242" d="M199.4 59.05l-2.289 17.47 16.372-.01s3.15 8.85 12.197 16.08c9.046 7.24 21.148 8.73 32.373-2.75C269.28 78.36 266.87 63.16 263.43 58c-9.166-13.75-33.925-7.61-39.82-6.95-5.894.66-24.21 8-24.21 8" transform="matrix(-1 0 0 1 267 0)"/>
        <path fill="#F25151" d="M226.097 87.67c-1.635 3.56.15 7.98 11.732 10.39 12.31 2.57 24.27-10.89 26.513-16.16 4.482-10.54.512-21.23.512-21.23s-7.437 7.63-12.424 2.64c-4.986-4.99-10.92 6-12.333 7.42-1.413 1.41-8.342 4.62-14 16.94" transform="matrix(-1 0 0 1 267 0)"/>
        <path fill="#42210B" d="M226.64 56.75c2.11 3.31 4.318 8.1 7.888 10.61 3.66 2.68 9.085.47 9.486-4.48.343 3.62-2.718 6.8-6.687 6.53-5.583-.42-8.763-7.91-10.688-12.66" transform="matrix(-1 0 0 1 267 0)"/>
        <path fill="#ECA3A3" d="M93.755 304.69s-8.388 40.74-4.793 51.52c3.595 10.79 11.383 53.92 11.383 62.91 0 8.99-3.595 14.98-3.595 14.98h47.331s-17.374-8.99-25.163-16.78c-7.788-7.79 7.19-100.85 7.19-108.24 0-7.39-8.817-25.85-8.817-25.85l-23.536 21.46" transform="matrix(-1 0 0 1 267 0)"/>
        <path fill="#BC2E2E" d="M156.463 79.81s-2.396-4.72-9.985-1.96c-7.589 2.76-8.787 20.34-4.793 24.33 3.994 4 14.778-22.37 14.778-22.37" transform="matrix(-1 0 0 1 267 0)"/>
        <path fill="#0B8AA7" d="M88.962 196.84l37.146 104.85s-22.767 3.4-37.146 7.39l-21.269-62.57-6.29-44.27 27.56-5.4" transform="matrix(-1 0 0 1 267 0)"/>
        <path fill="#ECA3A3" d="M64.398 300.49l4.31 11.57s-45.05 92.08-45.05 104.66c0 12.59 12.581 17.38 12.581 17.38H9.28S5.591 423.74.89 416.13c-3.633-5.89 4.793-13.79 8.388-17.38 3.594-3.59 11.206-89.87 29.18-98.26 17.974-8.38 25.94 0 25.94 0" transform="matrix(-1 0 0 1 267 0)"/>
        <path fill="#4CABC1" d="M23.657 204.43L28.45 309.08 74.583 313.08 79.975 248.71 67.693 202.24 23.657 204.43" transform="matrix(-1 0 0 1 267 0)"/>
        <path fill="#18287D" d="M99.764 79.54s-17.992-7.31-37.763 12.47C42.231 111.78 9.278 213.02 9.278 213.02l94.662 3.6s-7.789-4.72-3.595-25.73c4.194-21.01 12.735-77.51 12.735-88.3 0-10.78-13.316-23.05-13.316-23.05" transform="matrix(-1 0 0 1 267 0)"/>
        <path fill="#122266" d="M67.378 87.51c-5.867 5.98-12.246 16.05-5.708 28.01 8.553 15.64 25.787 43.37 42.543 53.57 1.745-10.6 2.97-20.54 4.523-31.53-5.626-13.41-35.99-55.52-41.358-50.05" transform="matrix(-1 0 0 1 267 0)"/>
        <path fill="#ECA3A3" d="M83.944 86.04c-5.089-4.22-12.545-3.81-17.39.69-5.296 4.91-11.055 13.2-5.152 23.04 9.586 15.98 31.257 47.29 49.18 47.29 17.922 0 31.502-33.31 31.502-33.31l9.586-11.98-9.586-6.79s-25.562 35.55-33.95 27.16c-6.767-6.77-11.195-35.32-24.19-46.1" transform="matrix(-1 0 0 1 267 0)"/>
        <path fill="#D64141" d="M131.368 114.37l9.12 15.06 12.78-10.23s7.988 4.95 19.572 4.95c11.583 0 21.967-6.39 23.565-22.37 1.598-15.97-6.39-32.75-12.382-34.35-5.99-1.59-19.687-1.47-21.684.52-1.997 2-12.866 20.85-17.059 25.05-4.194 4.19-13.912 21.37-13.912 21.37" transform="matrix(-1 0 0 1 267 0)"/>
        <path fill="#EC9696" d="M90.821 51.71L89.324 63.1l-4.903 20s15.737 19.84 21.601 16.65l2.714-33.41-17.915-14.63" transform="matrix(-1 0 0 1 267 0)"/>
        <path fill="#ECA3A3" d="M91.06 19.42c-2.55 1.16-8.179 21.84-6.24 34.33 1.938 12.48 18.065 20.22 26.748 21.53 8.683 1.32 14.59-18.37 14.59-18.37s6.644-33.11-8.363-41.88C102.79 6.27 91.06 19.42 91.06 19.42" transform="matrix(-1 0 0 1 267 0)"/>
        <path fill="#411F49" d="M83.014 53.75s3.302 11.22 6.31 9.35c3.008-1.88-1.179-21.32 6.315-18.84 2.47.82 3.875-10.01 5.875-15.01s21.461-.23 24.227-2.99c2.765-2.77 8.898-13.13-1.917-19.51-5.364-3.16-10.744-5-10.744-5s6.083 3.75 2.383 5.25c-3.699 1.5-11.07-6.25-11.07-6.25s2.871 12.25-3.379 9.75-7.75-5.25-7.75-5.25-.303 2.94-5.119 7.75c-4.816 4.82-2.38 8-5.38 14.25s-2.42 19.64.25 26.5" transform="matrix(-1 0 0 1 267 0)"/>
        <path fill="#EC9696" d="M98.031 45.2s1.56-6.74-2.5-7.6c-4.063-.86-8.328 6.4-7.202 10.97 1.126 4.56 9.872 2.2 9.702-3.37" transform="matrix(-1 0 0 1 267 0)"/>
        <path fill="#18287D" d="M117.914 48.96c-.503-1.27-.878-2.62-1.362-4.01-.62 2.62-.13 6.16 1.834 8.1-.395 1.09-1.079 2.98-2.17 3.02 1.181.91 3.073-1.45 3.77-2.96l.203-.44c-.305-.42-1.093-.62-2.275-3.71M112.78 38.43s-1.81-1.71-4.714-.22c-2.904 1.5-3.674 2.84-3.674 2.84s4.06-2.12 5.688-1.6c1.63.52 3.805-.42 2.7-1.02M121.511 38.34s1.103-1.26 3.151-.45 2.654 1.66 2.654 1.66-2.865-1.16-3.925-.7c-1.06.46-2.583-.02-1.88-.51M117.13 64.58c-.233 1.58-1.424 2.72-2.66 2.54-1.239-.18-2.054-1.61-1.822-3.2.232-1.58 1.423-2.72 2.661-2.54 1.237.18 2.053 1.62 1.82 3.2M111.64 45.7c0 1.63-.869 2.94-1.939 2.94s-1.937-1.31-1.937-2.94.867-2.95 1.937-2.95 1.938 1.32 1.938 2.95M124.89 44.72c0 1.63-.869 2.95-1.939 2.95s-1.937-1.32-1.937-2.95c0-1.63.867-2.94 1.937-2.94s1.938 1.31 1.938 2.94" transform="matrix(-1 0 0 1 267 0)"/>
        <path fill="#F24E4E" d="M129.989 110.34L139.445 123 145.43 121.34 147.75 116.67 135.764 103.5 129.989 110.34" transform="matrix(-1 0 0 1 267 0)"/>
        <path fill="#381A3F" d="M129.989 110.34L139.445 123 145.43 121.34 139.545 122.56 129.989 110.34" transform="matrix(-1 0 0 1 267 0)"/>
        <path fill="#18287D" d="M178.765 40.32c-.306 0-.607-.14-.803-.4a1 1 0 01.204-1.4c1.643-1.22 40.56-29.86 68.241-18.44.511.21.754.79.544 1.3-.21.51-.797.75-1.306.55-26.629-10.99-65.89 17.9-66.284 18.19a.956.956 0 01-.596.2M163.99 147.01a.996.996 0 01-.063-1.99c.367-.03 36.911-2.58 44.58-21.09a1 1 0 011.847.76c-8.145 19.66-44.746 22.22-46.3 22.32h-.065" transform="matrix(-1 0 0 1 267 0)"/>
    </g>
</svg>
