<svg xmlns="http://www.w3.org/2000/svg" width="309" height="301" viewBox="0 0 309 301">
    <g fill="none" fill-rule="evenodd">
        <path fill="#CC0606" d="M192.8 118.997c-22.112-5.857-47.919-9.216-70.797-9.216-25.409 0-44.427-3.485-56.523-10.357-9.613-5.46-11.32-11.21-11.48-11.848l5.874-1.5-.021-.076c.056.177 6.2 17.716 62.15 17.716 23.38 0 49.755 3.433 72.352 9.418 11.472 3.039 29.823 8.887 36.78 16.642 1.248 1.39-2.17 5.917-2.17 5.917s-13.477-10.687-36.165-16.696" transform="translate(-.188)"/>
        <g transform="translate(-.188) translate(.188 7)">
            <g>
                <path fill="#FFB6B6" d="M83.88 189.158s-32.274 81.428-34.837 85.276c-2.563 3.845-23.724-5.13-25.434 0-1.707 5.13 23.083 23.084 28.638 18.166 5.558-4.914 5.774-10.472 8.337-13.464 2.567-2.992 44.244-71.813 46.808-81.216 2.563-9.407-23.512-8.762-23.512-8.762M170.438 173.34c10.048 1.71 13.464 4.06 22.23-1.923 8.763-5.983 33.344-54.713 37.83-60.271 4.488-5.559 21.372-21.374 17.74-23.512-3.632-2.135-6.415 1.926-8.978 2.78-2.564.856-11.754.64-15.387 6.627-3.636 5.983 0 5.77-10.26 16.24-10.256 10.475-38.685 31.633-39.114 39.754-.425 8.122-4.06 20.304-4.06 20.304" transform="matrix(-1 0 0 1 249.3 0)"/>
                <path fill="#2A484A" d="M239.26 90.413c-2.564.857-11.754.641-15.387 6.628-2.71 4.46-1.386 5.483-4.788 10.055 2.189 2.178 5.832 4.251 11.589 3.844 4.705-5.72 21.157-21.193 17.564-23.306-3.632-2.135-6.415 1.926-8.978 2.78" transform="matrix(-1 0 0 1 249.3 0)"/>
                <path fill="#008292" d="M147.506 113.28c8.302 4.612 13.73 12.082 19.732 18.17 6.001 6.087 16.513 13.003 17.345 16.6.828 3.6 0 18.813-6.642 26.56-6.639 7.747-39.287 0-39.287 0s-2.624 5.785-3.906 11.34-1.498 8.334-4.702 9.19c-3.207.858-7.693 2.352-6.624 4.062 1.07 1.71 4.486 6.411 2.992 8.121-1.498 1.71-42.11-10.685-46.166-13.251-4.061-2.567 16.243-47.232 21.373-56.21 5.13-8.98 45.885-24.582 45.885-24.582" transform="matrix(-1 0 0 1 249.3 0)"/>
                <path stroke="#006470" stroke-width="1.811" d="M122.353 165.218s4.396 3.823 16.301 9.392" transform="matrix(-1 0 0 1 249.3 0)"/>
                <path fill="#FFB6B6" d="M157.507 24.48s5.559-8.122 7.697-11.65c2.138-3.525 3.848-10.044 5.45-12.075 1.602-2.03 3.525.641 3.525.961 0 .32 3.636 1.498 4.172 4.598.533 3.096 0 7.052 0 7.052s1.923-2.887 2.776-2.35c.853.532-1.71 9.615-5.343 12.498-3.632 2.888-8.762 4.277-10.155 5.559-1.386 1.281-8.122-4.594-8.122-4.594M24.498 34.232s-5.555-8.118-7.693-11.646C14.67 19.06 12.96 12.542 11.358 10.51c-1.606-2.03-3.528.641-3.528.961 0 .32-3.632 1.494-4.169 4.594-.533 3.1 0 7.056 0 7.056S1.74 20.235.886 20.768c-.857.536 1.706 9.619 5.342 12.502 3.632 2.888 8.762 4.277 10.148 5.559 1.39 1.281 8.122-4.597 8.122-4.597" transform="matrix(-1 0 0 1 249.3 0)"/>
                <path fill="#7632FF" d="M81.1 40.668s10.902-6.894 19.664-4.968c8.762 1.923 11.117 12.075 11.117 12.075l48.085-31.097s5.832 6.383 7.268 13.49c.429 2.112-47.448 48.916-47.448 48.916s13.893 14.108 21.161 16.672c7.265 2.566 8.55 8.121 8.759 10.26.216 2.138 5.346 2.991 4.705 7.264-.644 4.277-16.03 24.369-36.547 30.78-20.516 6.412-28.015-1.71-29.074-8.337-1.062-6.624-5.8-15.603-8.88-18.382-3.082-2.775-22.746-27.691-28.732-33.829-5.984-6.134-37.613-39.478-38.47-41.188-.857-1.71 3.95-11.196 8.762-10.684 4.814.507 32.915 26.928 37.62 26.287 4.698-.641 15.387-12.715 22.01-17.259" transform="matrix(-1 0 0 1 249.3 0)"/>
                <path fill="#411F49" d="M74.12 64.41s-.712-10.544 2.423-14.392c3.132-3.845 9.115-7.55 11.538-11.826 2.423-4.274-1.67-13.961-8.172-11.542 1.192-7.265-3.938-16.952-12.769-15.386C62.15 2 47.902 1.288 42.347 10.266 32.37 4.852 22.824 13.971 23.252 21.38c.429 7.408 8.111 21.092 8.687 25.077.576 3.989 3.427-13.82 3.427-13.82l11.682 3.132s4.986 16.815 12.11 17.669c7.125.856 14.962 10.972 14.962 10.972" transform="matrix(-1 0 0 1 249.3 0)"/>
                <path fill="#FFB6B6" d="M68.99 52.156c-.856-2.992 1.995-8.406.998-11.826-.998-3.42-4.562-5.13-6.837-2.567-2.282 2.567-.857 9.123 0 10.689.853 1.566-3.28 2.991-5.414.568-2.139-2.419-5.843-8.55-6.275-13.964-.425-5.41-15.955-5.983-20.516-3.416 0 0 1 8.262 1 11.253v6.127c0 1.677-3.848 8.122-1 8.55 2.85.429 4.845 6.272 5.698 8.266.857 1.994 1.57 6.98 8.55 6.412 6.984-.573 10.26-1.71 10.26-1.71s7.982 6.267 8.979 7.693c.993 1.425-.997 4.986 3.132 5.27 4.136.288 9.547-6.411 11.401-12.963 1.85-6.556 1.282-8.122-4.417-11.97 0 0-4.702-3.42-5.559-6.412z" transform="matrix(-1 0 0 1 249.3 0)"/>
                <path fill="#3C2C3B" d="M39.384 47.49c.446 1.53.37 2.898-.166 3.053-.536.159-1.335-.954-1.782-2.484-.446-1.53-.374-2.894.166-3.053.536-.158 1.336.954 1.782 2.484" transform="matrix(-1 0 0 1 249.3 0)"/>
                <path stroke="#3C2C3B" stroke-linecap="round" stroke-linejoin="round" stroke-width="1.71" d="M34.938 42.324s.694-1.343 2.236-2.321c.8-.508 1.828-.918 3.106-.99" transform="matrix(-1 0 0 1 249.3 0)"/>
                <path stroke="#404040" stroke-width=".864" d="M111.88 47.775c-5.889 3.513-11.966 7.776-14.244 9.065-2.28 1.288-10.38 4.323-11.013 5.968m33.163 16.276c-2.242 1.818-4.489 4.277-5.554 5.879-1.07 1.605-3.208 3.207-3.42 3.848" transform="matrix(-1 0 0 1 249.3 0)"/>
            </g>
            <circle cx="208.8" cy="63.9" r="1.35" fill="#3C2C3B" stroke="#3C2C3B" stroke-width=".9"/>
        </g>
        <path fill="#2846A6" d="M267.555 43.638c.191 0 .376-.094.483-.266 9.592-15.533-2.269-41.928-2.78-43.044-.123-.281-.46-.406-.741-.277-.281.129-.405.462-.281.744.124.268 12.125 26.966 2.842 41.987-.163.264-.079.61.185.773.09.056.191.083.292.083M266.158 172.17c-.315 0-.562-.25-.562-.562 0-.31.247-.561.562-.561 16.073 0 27.855-5.898 35.016-17.53 5.357-8.698 5.975-17.527 5.98-17.616.018-.309.293-.54.596-.524.309.02.545.286.522.595-.022.37-.629 9.16-6.116 18.095-5.07 8.258-15.432 18.103-35.998 18.103" transform="translate(-.188)"/>
        <path fill="#E93F3F" d="M25.064 156.89l-4.876-4.387c.73-.811 18.5-19.883 71.108-19.883 21.688 0 43.438 4.053 62.625 7.628 27.346 5.095 51.185 9.932 66.968 1.724 5.282-2.747 8.725-8.75 8.238-10.544 0 0 3.231 12.262-5.372 16.442-17.947 8.717-42.549 4.133-71.033-1.176-19.834-3.696-40.342-7.517-61.426-7.517-49.719 0-66.073 17.535-66.232 17.712" transform="translate(-.188)"/>
    </g>
</svg>
