<svg xmlns="http://www.w3.org/2000/svg" xmlns:xlink="http://www.w3.org/1999/xlink" width="267" height="219" viewBox="0 0 267 219">
    <defs>
        <rect id="prefix__a" width="266.76" height="218.538" x="0" y="0" rx="17.237"/>
    </defs>
    <g fill="none" fill-rule="evenodd" transform="translate(0 .274)">
        <mask id="prefix__b" fill="#fff">
            <use xlink:href="#prefix__a"/>
        </mask>
        <use fill="#F7F9FD" xlink:href="#prefix__a"/>
        <g fill="#64bfb5" fill-rule="nonzero" mask="url(#prefix__b)" opacity=".504">
            <g>
                <path d="M232.617 310.796l-73.418 95.485c-1.444 1.65-3.713 2.062-5.569.824l-125.8-163.54c-42.484-60.633-33.616-137.35 8.249-188.496l87.854 114.046-26.397 53.62c-7.631 15.673-1.238 34.647 14.436 42.277 4.537 2.269 9.28 3.3 13.817 3.3 11.755 0 22.892-6.6 28.46-17.736l9.693-19.798c.619-1.444 2.062-2.269 3.712-2.269h1.65l63.313 82.287z" transform="translate(-73.074 -20.178)"/>
                <path d="M197.975 5.774C184.57 2.062 170.134 0 154.873 0 105.79 0 64.956 21.242 37.527 53.208L35.053 56.3l86.617 112.396 1.237 1.65 77.75-158.592c1.237-2.268 0-5.156-2.682-5.98zM287.69 234.902c-3.505 5.981-7.63 11.756-12.167 17.324l-44.958 58.363-63.107-82.08h116.727c3.093 0 5.156 3.712 3.506 6.393zM262.314 160.448l-27.841-56.714c-1.444-3.093-5.98-3.093-7.424 0l-27.842 56.714c-1.443 2.68.62 5.98 3.713 5.98h55.682c2.887 0 4.95-3.3 3.712-5.98z" transform="translate(-73.074 -20.178)"/>
            </g>
        </g>
    </g>
</svg>
