<svg xmlns="http://www.w3.org/2000/svg" width="141" height="91" viewBox="0 0 141 91">
    <g fill="none">
        <path fill="#00ADA8" d="M51.628 69.416l-16.28 21.172c-.32.366-.823.458-1.234.183L6.219 54.51C-3.2 41.064-1.235 24.053 8.05 12.713L27.528 38 21.675 49.89c-1.692 3.475-.274 7.682 3.201 9.374a6.847 6.847 0 003.064.732 7.06 7.06 0 006.31-3.933l2.15-4.39c.137-.32.457-.503.823-.503h.366l14.039 18.246z"/>
        <path fill="#DF5BD3" d="M44.174 1.555a35.75 35.75 0 00-9.557-1.28c-10.884 0-19.938 4.71-26.02 11.797l-.549.686L27.254 37.68l.275.366 17.24-35.165c.274-.503 0-1.143-.595-1.326z"/>
        <path fill="#7632FF" d="M64.294 52.588a30.687 30.687 0 01-2.698 3.841L51.628 69.37l-13.993-18.2h25.882c.686 0 1.143.823.777 1.418zM58.213 35.851l-6.174-12.575c-.32-.686-1.326-.686-1.646 0L44.22 35.85c-.32.595.137 1.326.823 1.326h12.346c.64 0 1.098-.731.824-1.326zM121.867 37.132a1.64 1.64 0 01-1.646-1.647V24.511a1.64 1.64 0 011.646-1.647 1.64 1.64 0 011.646 1.647v10.974c-.046.915-.732 1.647-1.646 1.647z"/>
        <path fill="#00ADA8" d="M90.863 31.69a1.64 1.64 0 01-1.646-1.646c0-3.704 2.88-6.814 6.585-7.088h3.886a1.64 1.64 0 011.647 1.646 1.64 1.64 0 01-1.647 1.646h-3.704c-1.966.137-3.52 1.83-3.52 3.841 0 .87-.732 1.6-1.601 1.6z"/>
        <path fill="#7632FF" d="M99.688 37.132c-.045 0-3.704 0-3.932-.046a7.061 7.061 0 01-4.619-2.24c-1.234-1.327-1.875-3.019-1.875-4.848a1.64 1.64 0 011.647-1.646 1.64 1.64 0 011.646 1.646c0 1.966 1.555 3.658 3.52 3.841h3.705a1.64 1.64 0 011.646 1.646c-.091.915-.823 1.647-1.738 1.647zM83.089 35.074h-8.734a1.64 1.64 0 01-1.646-1.646 1.64 1.64 0 011.646-1.647h8.734a1.64 1.64 0 011.646 1.647c-.046.914-.777 1.646-1.646 1.646z"/>
        <path fill="#DF5BD3" d="M73.303 37.132c-.229 0-.503-.046-.732-.183a1.615 1.615 0 01-.731-2.195l5.35-10.975a1.615 1.615 0 012.195-.732 1.615 1.615 0 01.732 2.195l-5.35 10.975c-.275.595-.87.915-1.464.915z"/>
        <path fill="#00ADA8" d="M84.095 37.132c-.594 0-1.189-.32-1.463-.915l-5.35-10.975c-.412-.823-.046-1.783.731-2.195.823-.411 1.783-.045 2.195.732l5.35 10.975c.412.823.046 1.783-.731 2.195-.229.137-.458.183-.732.183z"/>
        <path fill="#DF5BD3" d="M110.755 37.132a1.64 1.64 0 01-1.646-1.647V24.511a1.64 1.64 0 011.646-1.647 1.64 1.64 0 011.646 1.647v10.974a1.64 1.64 0 01-1.646 1.647z"/>
        <path fill="#00ADA8" d="M115.145 26.203h-8.689a1.64 1.64 0 01-1.646-1.647 1.64 1.64 0 011.646-1.646h8.689a1.64 1.64 0 011.646 1.646c-.046.915-.777 1.647-1.646 1.647zM134.03 37.132c-.228 0-.502-.046-.731-.183a1.615 1.615 0 01-.732-2.195l5.35-10.975a1.615 1.615 0 012.196-.732 1.615 1.615 0 01.731 2.195l-5.35 10.975c-.274.595-.869.915-1.463.915z"/>
        <path fill="#DF5BD3" d="M133.985 37.132c-.595 0-1.189-.32-1.463-.915l-5.35-10.975c-.412-.823-.046-1.783.731-2.195.823-.411 1.783-.045 2.195.732l5.35 10.975c.412.823.046 1.783-.731 2.195a1.568 1.568 0 01-.732.183zM96.67 55.743a1.64 1.64 0 01-1.646-1.646V43.122a1.64 1.64 0 011.646-1.646 1.64 1.64 0 011.647 1.646v10.975c-.046.915-.778 1.646-1.647 1.646z"/>
        <path fill="#7632FF" d="M104.536 55.789a1.64 1.64 0 01-1.647-1.646V43.168a1.64 1.64 0 011.647-1.646 1.64 1.64 0 011.646 1.646v10.975a1.64 1.64 0 01-1.646 1.646z"/>
        <path fill="#00ADA8" d="M113.407 50.256a1.64 1.64 0 01-1.646-1.646c0-1.967-1.555-3.659-3.521-3.842h-3.704a1.64 1.64 0 01-1.647-1.646 1.64 1.64 0 011.647-1.646c.045 0 3.704 0 3.932.046 1.784.137 3.43.96 4.619 2.24 1.235 1.326 1.875 3.018 1.875 4.848.091.914-.64 1.646-1.555 1.646z"/>
        <path fill="#DF5BD3" d="M104.581 55.743a1.64 1.64 0 01-1.646-1.646 1.64 1.64 0 011.646-1.646h3.704c1.967-.137 3.522-1.83 3.522-3.841a1.64 1.64 0 011.646-1.647 1.64 1.64 0 011.646 1.647c0 3.704-2.88 6.813-6.585 7.087-.274.046-3.887.046-3.933.046z"/>
        <path fill="#00ADA8" d="M88.76 55.697c-.32 0-.595-.091-.87-.274l-8.322-5.396a1.636 1.636 0 01-.503-2.24 1.636 1.636 0 012.24-.504l8.323 5.35c.778.504.96 1.51.503 2.241-.32.55-.823.823-1.372.823z"/>
        <path fill="#DF5BD3" d="M80.437 50.256a1.672 1.672 0 01-1.372-.732c-.503-.777-.275-1.783.503-2.24l8.322-5.35c.778-.504 1.784-.275 2.241.502.503.778.275 1.784-.503 2.24l-8.322 5.351c-.275.137-.55.229-.87.229z"/>
        <path fill="#7632FF" d="M80.437 55.743a1.64 1.64 0 01-1.647-1.646V43.122a1.64 1.64 0 011.647-1.646 1.64 1.64 0 011.646 1.646v10.975a1.64 1.64 0 01-1.646 1.646z"/>
        <path fill="#00ADA8" d="M126.806 55.743c-3.933 0-7.088-3.2-7.088-7.088a1.64 1.64 0 011.646-1.646 1.64 1.64 0 011.646 1.646c0 2.104 1.738 3.841 3.841 3.841 2.104 0 3.841-1.737 3.841-3.84a1.64 1.64 0 011.647-1.647 1.64 1.64 0 011.646 1.646c-.092 3.887-3.293 7.088-7.18 7.088z"/>
        <path fill="#7632FF" d="M132.247 50.256a1.64 1.64 0 01-1.646-1.646c0-2.104-1.738-3.842-3.841-3.842-2.104 0-3.841 1.738-3.841 3.842a1.64 1.64 0 01-1.647 1.646 1.64 1.64 0 01-1.646-1.646c0-3.933 3.201-7.088 7.088-7.088 3.933 0 7.088 3.2 7.088 7.088.091.914-.64 1.646-1.555 1.646z"/>
    </g>
</svg>
