<svg xmlns="http://www.w3.org/2000/svg" width="152" height="98" viewBox="0 0 152 98">
    <g fill="#FFF">
        <path d="M37.28.295c3.644 0 7.09.493 10.292 1.38.64.196.936.886.64 1.428l-18.566 37.87-.015-.02-6.288 12.775C21.52 57.47 23.047 62 26.79 63.823c1.083.542 2.216.788 3.3.788 2.806 0 5.466-1.576 6.795-4.235l2.315-4.728c.148-.344.492-.541.886-.541h.394L55.6 74.756l-17.532 22.8c-.344.395-.886.493-1.33.198L6.698 58.702C-3.447 44.223-1.33 25.904 8.667 13.69l.02.025.571-.714C15.808 5.368 25.558.295 37.28.295z"/>
        <path d="M68.83 56.633c-.837 1.428-1.822 2.807-2.905 4.137L55.189 74.707l-15.069-19.6h27.873c.74 0 1.232.886.838 1.526zM62.69 38.609l-6.648-13.543c-.345-.738-1.428-.738-1.773 0L47.621 38.61c-.345.64.148 1.428.887 1.428h13.296c.69 0 1.182-.788.886-1.428zM131.241 39.988c-.985 0-1.773-.788-1.773-1.773V26.396c0-.985.788-1.773 1.773-1.773.985 0 1.773.788 1.773 1.773v11.82c-.05.984-.788 1.772-1.773 1.772zM97.852 34.128c-.985 0-1.773-.788-1.773-1.773 0-3.99 3.103-7.338 7.092-7.633h4.186c.985 0 1.773.788 1.773 1.772 0 .985-.788 1.773-1.773 1.773h-3.99c-2.117.148-3.791 1.97-3.791 4.137 0 .936-.788 1.724-1.724 1.724z"/>
        <path d="M107.357 39.988c-.05 0-3.99 0-4.235-.05-1.921-.147-3.694-1.033-4.974-2.412-1.33-1.429-2.02-3.25-2.02-5.22 0-.985.789-1.773 1.774-1.773.984 0 1.772.788 1.772 1.773 0 2.117 1.675 3.94 3.792 4.136h3.99c.984 0 1.772.788 1.772 1.773-.098.985-.886 1.773-1.871 1.773zM89.48 37.772h-9.406c-.985 0-1.772-.788-1.772-1.773 0-.985.787-1.773 1.772-1.773h9.406c.985 0 1.773.788 1.773 1.773-.049.985-.837 1.773-1.773 1.773z"/>
        <path d="M78.942 39.988c-.247 0-.542-.05-.788-.197-.887-.443-1.231-1.477-.788-2.364l5.762-11.819c.443-.886 1.477-1.231 2.363-.788.887.443 1.232 1.477.788 2.364l-5.761 11.819c-.296.64-.936.985-1.576.985z"/>
        <path d="M90.564 39.988c-.64 0-1.28-.345-1.576-.985l-5.762-11.82c-.443-.886-.05-1.92.788-2.363.887-.443 1.92-.05 2.364.788l5.762 11.82c.443.886.049 1.92-.788 2.363-.246.148-.493.197-.788.197zM119.274 39.988c-.985 0-1.772-.788-1.772-1.773V26.396c0-.985.787-1.773 1.772-1.773s1.773.788 1.773 1.773v11.82c0 .984-.788 1.772-1.773 1.772z"/>
        <path d="M124.002 28.218h-9.357c-.985 0-1.773-.788-1.773-1.773 0-.985.788-1.773 1.773-1.773h9.357c.985 0 1.773.788 1.773 1.773-.05.985-.837 1.773-1.773 1.773zM144.34 39.988c-.246 0-.541-.05-.787-.197-.887-.443-1.231-1.477-.788-2.364l5.762-11.819c.443-.886 1.477-1.231 2.363-.788.887.443 1.232 1.477.788 2.364l-5.761 11.819c-.296.64-.936.985-1.576.985z"/>
        <path d="M144.291 39.988c-.64 0-1.28-.345-1.575-.985l-5.762-11.82c-.443-.886-.05-1.92.788-2.363.886-.443 1.92-.05 2.364.788l5.761 11.82c.444.886.05 1.92-.788 2.363-.295.148-.541.197-.788.197zM104.107 60.031c-.985 0-1.773-.788-1.773-1.773V46.44c0-.985.788-1.773 1.773-1.773.984 0 1.772.788 1.772 1.773v11.82c-.049.984-.837 1.772-1.772 1.772zM112.577 60.08c-.985 0-1.773-.788-1.773-1.772v-11.82c0-.984.788-1.772 1.773-1.772.985 0 1.773.788 1.773 1.772v11.82c0 .984-.788 1.772-1.773 1.772z"/>
        <path d="M122.13 54.122c-.984 0-1.772-.788-1.772-1.773 0-2.118-1.675-3.94-3.792-4.137h-3.99c-.984 0-1.772-.788-1.772-1.773 0-.985.788-1.773 1.773-1.773.05 0 3.989 0 4.235.05 1.92.147 3.694 1.034 4.974 2.413 1.33 1.428 2.019 3.25 2.019 5.22.099.985-.69 1.773-1.674 1.773z"/>
        <path d="M112.626 60.031c-.985 0-1.773-.788-1.773-1.773 0-.985.788-1.773 1.773-1.773h3.99c2.117-.147 3.791-1.97 3.791-4.136 0-.985.788-1.773 1.773-1.773.985 0 1.773.788 1.773 1.773 0 3.989-3.103 7.337-7.092 7.633-.295.05-4.186.05-4.235.05zM95.587 59.982c-.345 0-.64-.099-.936-.296l-8.963-5.81c-.837-.542-1.034-1.626-.541-2.414.541-.837 1.625-1.034 2.413-.541l8.963 5.761c.837.542 1.034 1.626.541 2.413-.344.591-.886.887-1.477.887z"/>
        <path d="M86.624 54.122c-.59 0-1.133-.296-1.477-.788-.542-.838-.296-1.92.541-2.413l8.963-5.762c.837-.542 1.92-.296 2.413.542.542.837.296 1.92-.541 2.413l-8.963 5.761c-.296.148-.591.247-.936.247z"/>
        <path d="M86.624 60.031c-.985 0-1.773-.788-1.773-1.773V46.44c0-.985.788-1.773 1.773-1.773.985 0 1.773.788 1.773 1.773v11.82c0 .984-.788 1.772-1.773 1.772zM136.56 60.031c-4.235 0-7.633-3.447-7.633-7.633 0-.985.788-1.773 1.772-1.773.985 0 1.773.788 1.773 1.773 0 2.265 1.872 4.137 4.137 4.137 2.265 0 4.137-1.872 4.137-4.137 0-.985.788-1.773 1.773-1.773.985 0 1.772.788 1.772 1.773-.098 4.186-3.545 7.633-7.731 7.633z"/>
        <path d="M142.42 54.122c-.985 0-1.773-.788-1.773-1.773 0-2.266-1.871-4.137-4.136-4.137-2.266 0-4.137 1.871-4.137 4.137 0 .985-.788 1.773-1.773 1.773-.985 0-1.773-.788-1.773-1.773 0-4.235 3.447-7.633 7.633-7.633 4.235 0 7.633 3.447 7.633 7.633.099.985-.689 1.773-1.674 1.773z"/>
    </g>
</svg>
