<svg xmlns="http://www.w3.org/2000/svg" width="241" height="244" viewBox="0 0 241 244">
    <g fill="none" fill-rule="evenodd">
        <path fill="#562954" d="M133.085 27.478s8.793 5.832 3.04 16.422c-5.762 10.599-7.515 10.59-13.062 15.255-5.539 4.656-18.237 6.785-16.195 8.498 2.042 1.721-16.82-3.083-14.61-11.664 2.219-8.572 12.558-11.182 12.558-11.182s-4.354-2.24-4.354-7.082c0-4.841 8.42-14.209 8.858-20.411.438-6.211 25.92 1.537 25.92 6.22 0 4.694-2.155 3.944-2.155 3.944"/>
        <path fill="#FFB6B6" d="M106.077 69.523s-7.979-1.566-8.976.722c-.997 2.288-26.92 58.45-34.899 66.476-7.97 8.026-25.587 38.442-37.882 42.793 0 0 2.74-3.929 0-6.685-2.74-2.766-7.979-5.485-7.979-2.991 0 2.484 4.158 2.822 4.158 3.825 0 1.004.494 5.176-4.158 5.851-4.65.666-9.722-.919-10.801-2.007-1.08-1.087 5.787-5.85 5.787-5.85s5.76-.59 4.017-3.094l-5.649.422S1.22 176.167.222 177.17c-.996 1.003 3.241 7.52 9.725 10.445 6.478 2.925 10.636 1.003 22.595-3.76C44.51 179.092 89.625 129.7 97.1 116.91c7.476-12.78 8.976-47.387 8.976-47.387M140.077 70.292s8-1.162 8.88 1.152c.88 2.313 23.884 59.178 31.41 67.513 7.535 8.334 23.55 39.312 35.544 44.218 0 0-2.53-4.023.324-6.625 2.864-2.592 8.193-5.026 8.073-2.564-.12 2.462-4.264 2.592-4.31 3.586-.056.995-.75 5.102 3.837 5.994 4.588.892 9.695-.437 10.825-1.46 1.122-1.021-5.468-6.076-5.468-6.076s-5.69-.855-3.837-3.252l5.598.688s8.063 7.535 9 8.576c.945 1.04-3.578 7.284-10.159 9.858-6.58 2.583-10.612.474-22.262-4.832-11.65-5.305-54.052-56.409-60.855-69.426-6.803-13.027-6.6-47.35-6.6-47.35"/>
        <path fill="#0B8AA7" d="M103.7 154.952s-20.915 18.118-24.778 22.012c0 0-64.085 21.646-67.072 37.203C8.862 229.724 14.344 238 31.769 238c17.424 0 67.947-6.774 86.86-9.533 18.924-2.759 76.912 9.533 89.859 9.533 12.938 0 18.662-8.276 17.424-13.549-1.247-5.273-65.713-40.384-72.434-43.396-6.72-3.012-12.817-21.712-17.173-26.103-4.356-4.392-32.605 0-32.605 0"/>
        <path fill="#F4A2A0" d="M60.694 214s-11.714-3.551-9.285-6.033c2.438-2.473 23.325-1.623 28.09-1.623 4.774 0 8.778-4.344 12.54-4.344 3.77 0 11.038 12 11.038 12H60.694"/>
        <path fill="#FD9C9A" d="M96.077 224.226c2.49 0 29.314 7.987 55.145 14.967 25.83 6.989 66.309 6.242 71.036-1.493 4.719-7.736 5.453-12.196 0-16.507-5.461-4.311-30.307-8.193-40.236-8.193-9.939 0-32.296 4.236-45.708 4.236-13.412 0-40.237 6.99-40.237 6.99"/>
        <path fill="#FFB6B6" d="M27.975 220.865s25.386-8.225 47.793-10.964c22.408-2.739 70.452 5.487 76.671 5.487 6.228 0 9.495-4.584 10.957-6.046 1.461-1.463 10.687 2.012 14.439 5.766 3.742 3.745 21.16.773 23.152 5.757 1.992 4.984-29.38.252-38.336 1.742-8.965 1.5-67.715 10.21-92.608 17.439-24.893 7.22-54.486.065-56.758-9.185-2.262-9.25 14.69-9.996 14.69-9.996"/>
        <path fill="#DF5BD3" d="M118.026 64.026c-6 0-23.028 3.799-23.028 9.274 0 5.474-4.25 25.296-4.25 32.866 0 10.837-9.324 59.559-12.572 70.266-3.258 10.707 75.488 10.185 74.898 4.934-1.348-12.168-6.431-99.845-4.924-109.063 1.498-9.208-30.124-8.277-30.124-8.277"/>
        <path fill="#FFF" d="M101.077 70.704a.708.708 0 01-.71-.7.71.71 0 01.71-.708.71.71 0 01.711.708c0 .387-.322.7-.71.7zm0-1.704c-.553 0-1 .453-1 1.004 0 .552.447.996 1 .996.554 0 1-.444 1-.996 0-.551-.446-1.004-1-1.004zM107.081 70.71a.71.71 0 01-.707-.71.71.71 0 01.707-.71c.387 0 .708.322.708.71 0 .388-.32.71-.708.71zm0-1.71c-.551 0-1.004.446-1.004 1s.453 1 1.004 1a.996.996 0 00.996-1c0-.554-.444-1-.996-1zM114.073 70.704a.7.7 0 01-.7-.708c0-.387.313-.7.7-.7a.703.703 0 110 1.407zm0-1.704a1.001 1.001 0 000 2c.552 0 1.004-.453 1.004-1.004 0-.552-.452-.996-1.004-.996zM120.077 70.704a.708.708 0 01-.71-.7.71.71 0 01.71-.708.704.704 0 110 1.408zm0-1.704c-.553 0-1 .453-1 1.004 0 .552.447.996 1 .996.554 0 1-.444 1-.996 0-.551-.446-1.004-1-1.004zM126.077 70.71a.71.71 0 110-1.42.71.71 0 010 1.42zm0-1.71c-.553 0-1 .446-1 1s.447 1 1 1c.554 0 1-.446 1-1s-.446-1-1-1zM134.081 70.704a.703.703 0 110-1.408c.387 0 .7.313.7.7a.7.7 0 01-.7.708zm0-1.704c-.551 0-1.004.444-1.004.996 0 .551.453 1.004 1.004 1.004a1.001 1.001 0 000-2zM140.073 69.29c.395 0 .708.313.708.71a.71.71 0 01-.708.71.715.715 0 01-.708-.71.71.71 0 01.708-.71zm0 1.71c.552 0 1.004-.446 1.004-1s-.452-1-1.004-1a.996.996 0 00-.996 1c0 .554.445 1 .996 1zM146.077 69.29a.71.71 0 110 1.422.71.71 0 010-1.423zm0 1.71c.554 0 1-.446 1-1s-.446-1-1-1c-.553 0-1 .446-1 1s.447 1 1 1zM101.077 78.71a.71.71 0 110-1.422.71.71 0 010 1.423zm0-1.71c-.553 0-1 .446-1 1s.447 1 1 1c.554 0 1-.446 1-1s-.446-1-1-1zM107.081 78.71a.704.704 0 01-.707-.71.71.71 0 01.707-.71.71.71 0 010 1.421zm0-1.71c-.551 0-1.004.446-1.004 1s.453 1 1.004 1a.996.996 0 00.996-1c0-.554-.444-1-.996-1zM114.073 78.704a.699.699 0 01-.7-.7.703.703 0 11.7.7zm0-1.704a1.001 1.001 0 000 2c.552 0 1.004-.444 1.004-.996 0-.551-.452-1.004-1.004-1.004zM120.077 78.71a.716.716 0 01-.71-.71.71.71 0 11.71.71zm0-1.71c-.553 0-1 .446-1 1s.447 1 1 1c.554 0 1-.446 1-1s-.446-1-1-1zM126.077 78.704a.704.704 0 01-.71-.708.71.71 0 01.71-.708c.389 0 .711.321.711.708a.71.71 0 01-.71.708zm0-1.704c-.553 0-1 .444-1 .996 0 .551.447 1.004 1 1.004.554 0 1-.453 1-1.004a.996.996 0 00-1-.996zM134.081 78.704a.703.703 0 11.7-.7c0 .387-.313.7-.7.7zm0-1.704c-.551 0-1.004.453-1.004 1.004a1.001 1.001 0 002 0c0-.551-.444-1.004-.996-1.004zM140.073 77.29a.71.71 0 01.708.71.71.71 0 01-.708.71.715.715 0 01-.708-.71c0-.388.321-.71.708-.71zm0 1.71c.552 0 1.004-.446 1.004-1s-.452-1-1.004-1a.996.996 0 00-.996 1c0 .554.445 1 .996 1zM146.077 77.296c.389 0 .711.313.711.7a.71.71 0 01-.71.708.71.71 0 01-.711-.708c0-.387.322-.7.71-.7zm0 1.704c.554 0 1-.453 1-1.004a.996.996 0 00-1-.996c-.553 0-1 .444-1 .996 0 .551.447 1.004 1 1.004zM95.077 84.996c0-.498-.311-.905-.724-.996-.015.1-.03.2-.037.29.283.067.5.357.5.706 0 .39-.275.705-.623.705h-.08c-.007.092-.021.191-.036.29l.116.009c.486 0 .884-.448.884-1.004M101.077 85.71a.716.716 0 01-.71-.71c0-.388.322-.71.71-.71.389 0 .711.322.711.71 0 .388-.322.71-.71.71zm0-1.71c-.553 0-1 .446-1 1s.447 1 1 1c.554 0 1-.446 1-1s-.446-1-1-1zM107.081 85.704a.703.703 0 110-1.408c.387 0 .708.313.708.7a.708.708 0 01-.708.708zm0-1.704c-.551 0-1.004.444-1.004.996 0 .551.453 1.004 1.004 1.004a1.001 1.001 0 000-2zM114.073 85.712a.706.706 0 01-.7-.708.703.703 0 111.407 0 .708.708 0 01-.707.708zm0-1.712a1.001 1.001 0 000 2c.552 0 1.004-.444 1.004-.996 0-.551-.452-1.004-1.004-1.004zM120.077 85.71a.71.71 0 110-1.42.71.71 0 010 1.42zm0-1.71c-.553 0-1 .446-1 1s.447 1 1 1c.554 0 1-.446 1-1s-.446-1-1-1zM126.077 85.704a.704.704 0 110-1.407.71.71 0 01.711.707c0 .387-.322.7-.71.7zm0-1.704c-.553 0-1 .453-1 1.004 0 .552.447.996 1 .996.554 0 1-.444 1-.996 0-.551-.446-1.004-1-1.004zM134.081 85.712a.708.708 0 110-1.416.7.7 0 01.7.708.706.706 0 01-.7.708zm0-1.712c-.551 0-1.004.453-1.004 1.004a1.001 1.001 0 002 0c0-.551-.444-1.004-.996-1.004zM140.073 84.29a.71.71 0 01.708.71c0 .397-.313.71-.708.71a.71.71 0 01-.708-.71c0-.388.321-.71.708-.71zm0 1.71c.552 0 1.004-.446 1.004-1s-.452-1-1.004-1a.996.996 0 00-.996 1c0 .554.445 1 .996 1zM146.077 84.296a.71.71 0 01.711.708c0 .387-.322.7-.71.7a.708.708 0 01-.711-.7.71.71 0 01.71-.708zm0 1.704c.554 0 1-.444 1-.996 0-.551-.446-1.004-1-1.004-.553 0-1 .453-1 1.004 0 .552.447.996 1 .996zM94.073 93.71a.708.708 0 01-.7-.71c0-.388.313-.71.7-.71a.71.71 0 01.708.71.71.71 0 01-.708.71zm0-1.71a.996.996 0 00-.996 1c0 .554.445 1 .996 1 .552 0 1.004-.446 1.004-1s-.452-1-1.004-1zM101.077 93.704a.71.71 0 01-.71-.708c0-.387.322-.708.71-.708.389 0 .711.321.711.708a.71.71 0 01-.71.708zm0-1.704c-.553 0-1 .444-1 .996 0 .551.447 1.004 1 1.004.554 0 1-.453 1-1.004a.996.996 0 00-1-.996zM107.081 93.704a.703.703 0 110-1.407c.387 0 .708.312.708.707 0 .387-.32.7-.708.7zm0-1.704c-.551 0-1.004.453-1.004 1.004a1.001 1.001 0 002 0c0-.551-.444-1.004-.996-1.004zM114.073 93.71a.708.708 0 01-.7-.71c0-.388.313-.71.7-.71a.71.71 0 01.708.71.71.71 0 01-.708.71zm0-1.71a.996.996 0 00-.996 1c0 .554.445 1 .996 1 .552 0 1.004-.446 1.004-1s-.452-1-1.004-1zM120.077 93.704a.71.71 0 01-.71-.708c0-.387.322-.7.71-.7a.704.704 0 110 1.407zm0-1.704c-.553 0-1 .444-1 .996 0 .551.447 1.004 1 1.004.554 0 1-.453 1-1.004a.996.996 0 00-1-.996zM126.077 93.704a.704.704 0 110-1.407.71.71 0 01.711.707c0 .387-.322.7-.71.7zm0-1.704c-.553 0-1 .453-1 1.004 0 .552.447.996 1 .996.554 0 1-.444 1-.996 0-.551-.446-1.004-1-1.004zM134.081 93.71a.71.71 0 01-.707-.71.71.71 0 01.707-.71c.387 0 .7.322.7.71 0 .388-.313.71-.7.71zm0-1.71c-.551 0-1.004.446-1.004 1s.453 1 1.004 1a.996.996 0 00.996-1c0-.554-.444-1-.996-1zM140.073 92.296a.703.703 0 110 1.407.708.708 0 01-.708-.707c0-.387.321-.7.708-.7zm0 1.704c.552 0 1.004-.453 1.004-1.004a1.001 1.001 0 00-2 0c0 .551.445 1.004.996 1.004zM146.077 92.296a.71.71 0 01.711.708.715.715 0 01-.71.708.715.715 0 01-.711-.708.71.71 0 01.71-.708zm0 1.704c.554 0 1-.444 1-.996 0-.551-.446-1.004-1-1.004-.553 0-1 .453-1 1.004 0 .552.447.996 1 .996zM94.073 101.71a.708.708 0 01-.7-.71c0-.388.313-.71.7-.71a.71.71 0 01.708.71.71.71 0 01-.708.71zm0-1.71a.996.996 0 00-.996 1c0 .554.445 1 .996 1 .552 0 1.004-.446 1.004-1s-.452-1-1.004-1zM101.077 101.704a.71.71 0 01-.71-.708c0-.387.322-.7.71-.7.389 0 .711.313.711.7a.71.71 0 01-.71.708zm0-1.704c-.553 0-1 .444-1 .996 0 .551.447 1.004 1 1.004.554 0 1-.453 1-1.004a.996.996 0 00-1-.996zM107.081 101.712a.708.708 0 110-1.416.708.708 0 010 1.416zm0-1.712c-.551 0-1.004.453-1.004 1.004a1.001 1.001 0 002 0c0-.551-.444-1.004-.996-1.004zM114.073 101.71a.708.708 0 01-.7-.71c0-.388.313-.71.7-.71a.71.71 0 01.708.71.71.71 0 01-.708.71zm0-1.71a.996.996 0 00-.996 1c0 .554.445 1 .996 1 .552 0 1.004-.446 1.004-1s-.452-1-1.004-1zM120.077 101.704a.708.708 0 01-.71-.7.71.71 0 01.71-.708.704.704 0 110 1.408zm0-1.704c-.553 0-1 .444-1 1.004 0 .552.447.996 1 .996.554 0 1-.444 1-.996a.998.998 0 00-1-1.004zM126.077 100.71a.71.71 0 110-1.42.71.71 0 010 1.42zm0-1.71c-.553 0-1 .446-1 1s.447 1 1 1c.554 0 1-.446 1-1s-.446-1-1-1zM134.081 100.704a.708.708 0 110-1.416c.387 0 .7.321.7.708a.7.7 0 01-.7.708zm0-1.704c-.551 0-1.004.444-1.004.996 0 .551.453 1.004 1.004 1.004a1.001 1.001 0 000-2zM140.073 99.296a.703.703 0 110 1.408.706.706 0 01-.708-.7c0-.395.321-.708.708-.708zm0 1.704c.552 0 1.004-.444 1.004-.996 0-.551-.452-1.004-1.004-1.004a1.001 1.001 0 000 2zM146.077 99.29c.389 0 .711.322.711.71 0 .388-.322.71-.71.71a.716.716 0 01-.711-.71c0-.388.322-.71.71-.71zm0 1.71c.554 0 1-.446 1-1s-.446-1-1-1c-.553 0-1 .446-1 1s.447 1 1 1zM94.073 108.704a.7.7 0 01-.7-.708c0-.387.313-.708.7-.708a.708.708 0 110 1.416zm0-1.704a1.001 1.001 0 000 2c.552 0 1.004-.453 1.004-1.004 0-.552-.452-.996-1.004-.996zM101.077 108.704a.708.708 0 01-.71-.7.71.71 0 01.71-.708.71.71 0 01.711.708c0 .387-.322.7-.71.7zm0-1.704c-.553 0-1 .453-1 1.004 0 .552.447.996 1 .996.554 0 1-.444 1-.996 0-.551-.446-1.004-1-1.004zM107.081 108.71a.71.71 0 01-.707-.71.71.71 0 01.707-.71c.387 0 .708.322.708.71 0 .388-.32.71-.708.71zm0-1.71c-.551 0-1.004.446-1.004 1s.453 1 1.004 1a.996.996 0 00.996-1c0-.554-.444-1-.996-1zM114.073 108.704a.7.7 0 01-.7-.708c0-.387.313-.7.7-.7a.703.703 0 110 1.407zm0-1.704a1.001 1.001 0 000 2c.552 0 1.004-.453 1.004-1.004 0-.552-.452-.996-1.004-.996zM120.077 108.704a.708.708 0 01-.71-.7.71.71 0 01.71-.708.704.704 0 110 1.408zm0-1.704c-.553 0-1 .453-1 1.004 0 .552.447.996 1 .996.554 0 1-.444 1-.996 0-.551-.446-1.004-1-1.004zM126.077 108.71a.71.71 0 110-1.42.71.71 0 010 1.42zm0-1.71c-.553 0-1 .446-1 1s.447 1 1 1c.554 0 1-.446 1-1s-.446-1-1-1zM134.081 108.704a.703.703 0 110-1.408c.387 0 .7.313.7.7a.7.7 0 01-.7.708zm0-1.704c-.551 0-1.004.444-1.004.996 0 .551.453 1.004 1.004 1.004a1.001 1.001 0 000-2zM140.073 107.296a.708.708 0 110 1.416.708.708 0 010-1.416zm0 1.704c.552 0 1.004-.444 1.004-.996 0-.551-.452-1.004-1.004-1.004a1.001 1.001 0 000 2zM146.077 107.29a.71.71 0 110 1.422.71.71 0 010-1.423zm0 1.71c.554 0 1-.446 1-1s-.446-1-1-1c-.553 0-1 .446-1 1s.447 1 1 1zM94.073 116.704a.7.7 0 01-.7-.708c0-.387.313-.7.7-.7a.703.703 0 110 1.407zm0-1.704a1.001 1.001 0 000 2c.552 0 1.004-.453 1.004-1.004 0-.552-.452-.996-1.004-.996zM101.077 116.712a.715.715 0 01-.71-.708.71.71 0 01.71-.708.71.71 0 01.711.708.715.715 0 01-.71.708zm0-1.712c-.553 0-1 .453-1 1.004 0 .552.447.996 1 .996.554 0 1-.444 1-.996 0-.551-.446-1.004-1-1.004zM107.081 116.71a.704.704 0 01-.707-.71.71.71 0 01.707-.71.71.71 0 010 1.421zm0-1.71c-.551 0-1.004.446-1.004 1s.453 1 1.004 1a.996.996 0 00.996-1c0-.554-.444-1-.996-1zM114.073 116.704a.699.699 0 01-.7-.7.703.703 0 11.7.7zm0-1.704a1.001 1.001 0 000 2c.552 0 1.004-.444 1.004-.996 0-.551-.452-1.004-1.004-1.004zM120.077 116.71a.716.716 0 01-.71-.71.71.71 0 11.71.71zm0-1.71c-.553 0-1 .446-1 1s.447 1 1 1c.554 0 1-.446 1-1s-.446-1-1-1zM126.077 116.704a.704.704 0 110-1.408c.389 0 .711.313.711.7a.71.71 0 01-.71.708zm0-1.704c-.553 0-1 .444-1 .996 0 .551.447 1.004 1 1.004.554 0 1-.453 1-1.004a.996.996 0 00-1-.996zM134.081 116.704a.703.703 0 11.7-.7c0 .387-.313.7-.7.7zm0-1.704c-.551 0-1.004.453-1.004 1.004a1.001 1.001 0 002 0c0-.551-.444-1.004-.996-1.004zM140.073 115.29a.71.71 0 01.708.71.71.71 0 01-.708.71.715.715 0 01-.708-.71c0-.388.321-.71.708-.71zm0 1.71c.552 0 1.004-.446 1.004-1s-.452-1-1.004-1a.996.996 0 00-.996 1c0 .554.445 1 .996 1zM146.077 115.296c.389 0 .711.313.711.7a.71.71 0 01-.71.708.71.71 0 01-.711-.708c0-.387.322-.7.71-.7zm0 1.704c.554 0 1-.453 1-1.004a.996.996 0 00-1-.996c-.553 0-1 .444-1 .996 0 .551.447 1.004 1 1.004zM94.073 123.704a.699.699 0 01-.7-.7.703.703 0 11.7.7zm0-1.704a1.001 1.001 0 000 2c.552 0 1.004-.444 1.004-.996 0-.551-.452-1.004-1.004-1.004zM101.077 123.71a.716.716 0 01-.71-.71c0-.388.322-.71.71-.71.389 0 .711.322.711.71 0 .388-.322.71-.71.71zm0-1.71c-.553 0-1 .446-1 1s.447 1 1 1c.554 0 1-.446 1-1s-.446-1-1-1zM107.081 123.704a.703.703 0 110-1.408c.387 0 .708.313.708.7a.708.708 0 01-.708.708zm0-1.704c-.551 0-1.004.444-1.004.996 0 .551.453 1.004 1.004 1.004a1.001 1.001 0 000-2zM114.073 123.704a.699.699 0 01-.7-.7.703.703 0 11.7.7zm0-1.704a1.001 1.001 0 000 2c.552 0 1.004-.444 1.004-.996 0-.551-.452-1.004-1.004-1.004zM120.077 123.71a.716.716 0 01-.71-.71.71.71 0 11.71.71zm0-1.71c-.553 0-1 .446-1 1s.447 1 1 1c.554 0 1-.446 1-1s-.446-1-1-1zM126.077 123.704a.704.704 0 110-1.408c.389 0 .711.313.711.7a.71.71 0 01-.71.708zm0-1.704c-.553 0-1 .444-1 .996 0 .551.447 1.004 1 1.004.554 0 1-.453 1-1.004a.996.996 0 00-1-.996zM134.081 123.712a.708.708 0 110-1.416c.387 0 .7.321.7.708a.706.706 0 01-.7.708zm0-1.712c-.551 0-1.004.453-1.004 1.004a1.001 1.001 0 002 0c0-.551-.444-1.004-.996-1.004zM140.073 122.29a.71.71 0 01.708.71c0 .397-.313.71-.708.71a.71.71 0 01-.708-.71c0-.388.321-.71.708-.71zm0 1.71c.552 0 1.004-.446 1.004-1s-.452-1-1.004-1a.996.996 0 00-.996 1c0 .554.445 1 .996 1zM146.077 122.296a.71.71 0 01.711.708c0 .387-.322.7-.71.7a.708.708 0 01-.711-.7.71.71 0 01.71-.708zm0 1.704c.554 0 1-.444 1-.996 0-.551-.446-1.004-1-1.004-.553 0-1 .453-1 1.004 0 .552.447.996 1 .996zM88.892 130.43c0-.164-.12-.313-.31-.43l-.09.287a.25.25 0 01.04.144c0 .106-.06.207-.18.282l-.09.287c.38-.112.63-.324.63-.57M94.073 131.71a.708.708 0 01-.7-.71.704.704 0 111.407 0 .71.71 0 01-.707.71zm0-1.71a.996.996 0 00-.996 1c0 .554.445 1 .996 1 .552 0 1.004-.446 1.004-1s-.452-1-1.004-1zM101.077 131.704a.71.71 0 01-.71-.708c0-.387.322-.708.71-.708.389 0 .711.321.711.708a.71.71 0 01-.71.708zm0-1.704c-.553 0-1 .444-1 .996 0 .551.447 1.004 1 1.004.554 0 1-.453 1-1.004a.996.996 0 00-1-.996zM107.081 131.704a.703.703 0 110-1.408c.387 0 .708.313.708.7a.708.708 0 01-.708.708zm0-1.704c-.551 0-1.004.453-1.004.996 0 .56.453 1.004 1.004 1.004a.996.996 0 00.996-1.004 1 1 0 00-.996-.996zM114.073 131.71a.708.708 0 01-.7-.71c0-.388.313-.71.7-.71a.71.71 0 01.708.71.71.71 0 01-.708.71zm0-1.71a.996.996 0 00-.996 1c0 .554.445 1 .996 1 .552 0 1.004-.446 1.004-1s-.452-1-1.004-1zM120.077 131.704a.71.71 0 01-.71-.708c0-.387.322-.7.71-.7a.704.704 0 110 1.407zm0-1.704c-.553 0-1 .444-1 .996 0 .551.447 1.004 1 1.004.554 0 1-.453 1-1.004a.996.996 0 00-1-.996zM126.077 131.704a.704.704 0 110-1.407.71.71 0 01.711.707c0 .387-.322.7-.71.7zm0-1.704c-.553 0-1 .453-1 1.004 0 .552.447.996 1 .996.554 0 1-.444 1-.996 0-.551-.446-1.004-1-1.004zM134.081 131.71a.71.71 0 01-.707-.71.71.71 0 01.707-.71c.387 0 .7.322.7.71 0 .388-.313.71-.7.71zm0-1.71c-.551 0-1.004.446-1.004 1s.453 1 1.004 1a.996.996 0 00.996-1c0-.554-.444-1-.996-1zM140.073 130.296a.703.703 0 110 1.407.708.708 0 01-.708-.707c0-.387.321-.7.708-.7zm0 1.704c.552 0 1.004-.453 1.004-1.004a1.001 1.001 0 00-2 0c0 .551.445 1.004.996 1.004zM146.077 130.296a.71.71 0 01.711.708c0 .387-.322.7-.71.7a.708.708 0 01-.711-.7.71.71 0 01.71-.708zm0 1.704c.554 0 1-.444 1-.996 0-.551-.446-1.004-1-1.004-.553 0-1 .453-1 1.004 0 .552.447.996 1 .996zM88.077 138.004c0-.551-.534-1.004-1.198-1.004-.158 0-.307.025-.445.074a4.94 4.94 0 00-.08.37.977.977 0 01.525-.148c.466 0 .842.313.842.708 0 .387-.376.7-.842.7-.307 0-.574-.132-.723-.33a4.94 4.94 0 00-.079.37c.208.157.485.256.802.256.664 0 1.198-.444 1.198-.996M94.073 138.71a.708.708 0 01-.7-.71c0-.388.313-.71.7-.71a.71.71 0 01.708.71.71.71 0 01-.708.71zm0-1.71a.996.996 0 00-.996 1c0 .554.445 1 .996 1 .552 0 1.004-.446 1.004-1s-.452-1-1.004-1zM101.077 138.704a.71.71 0 01-.71-.708c0-.387.322-.7.71-.7.389 0 .711.313.711.7a.71.71 0 01-.71.708zm0-1.704c-.553 0-1 .444-1 .996 0 .551.447 1.004 1 1.004.554 0 1-.453 1-1.004a.996.996 0 00-1-.996zM107.081 138.712a.708.708 0 110-1.416.708.708 0 010 1.416zm0-1.712c-.551 0-1.004.453-1.004 1.004a1.001 1.001 0 002 0c0-.551-.444-1.004-.996-1.004zM114.073 138.71a.708.708 0 01-.7-.71c0-.388.313-.71.7-.71a.71.71 0 01.708.71.71.71 0 01-.708.71zm0-1.71a.996.996 0 00-.996 1c0 .554.445 1 .996 1 .552 0 1.004-.446 1.004-1s-.452-1-1.004-1zM120.077 138.704a.71.71 0 01-.71-.708c0-.387.322-.7.71-.7a.704.704 0 110 1.407zm0-1.704c-.553 0-1 .444-1 .996 0 .551.447 1.004 1 1.004.554 0 1-.453 1-1.004a.996.996 0 00-1-.996zM126.077 138.71a.71.71 0 110-1.42.71.71 0 010 1.42zm0-1.71c-.553 0-1 .446-1 1s.447 1 1 1c.554 0 1-.446 1-1s-.446-1-1-1zM134.081 138.704a.708.708 0 110-1.416c.387 0 .7.321.7.708a.7.7 0 01-.7.708zm0-1.704c-.551 0-1.004.444-1.004.996 0 .551.453 1.004 1.004 1.004a1.001 1.001 0 000-2zM140.073 137.296a.703.703 0 110 1.408.706.706 0 01-.708-.7c0-.395.321-.708.708-.708zm0 1.704c.552 0 1.004-.444 1.004-.996 0-.551-.452-1.004-1.004-1.004a1.001 1.001 0 000 2zM146.077 137.29c.389 0 .711.322.711.71 0 .388-.322.71-.71.71a.716.716 0 01-.711-.71c0-.388.322-.71.71-.71zm0 1.71c.554 0 1-.446 1-1s-.446-1-1-1c-.553 0-1 .446-1 1s.447 1 1 1zM87.081 146.71a.71.71 0 01-.707-.71.704.704 0 111.407 0c0 .388-.313.71-.7.71zm0-1.71c-.551 0-1.004.446-1.004 1s.453 1 1.004 1a.996.996 0 00.996-1c0-.554-.444-1-.996-1zM94.073 146.71a.702.702 0 01-.7-.71c0-.388.313-.71.7-.71a.71.71 0 01.708.71c0 .397-.313.71-.708.71zm0-1.71a.996.996 0 00-.996 1c0 .554.445 1 .996 1 .552 0 1.004-.446 1.004-1s-.452-1-1.004-1zM101.077 146.704a.708.708 0 01-.71-.7.71.71 0 01.71-.708.71.71 0 01.711.708c0 .387-.322.7-.71.7zm0-1.704c-.553 0-1 .453-1 1.004 0 .552.447.996 1 .996.554 0 1-.444 1-.996 0-.551-.446-1.004-1-1.004zM107.081 146.71a.71.71 0 01-.707-.71.71.71 0 01.707-.71c.387 0 .708.322.708.71 0 .388-.32.71-.708.71zm0-1.71c-.551 0-1.004.446-1.004 1s.453 1 1.004 1a.996.996 0 00.996-1c0-.554-.444-1-.996-1zM114.073 146.704a.7.7 0 01-.7-.708c0-.387.313-.7.7-.7a.703.703 0 110 1.407zm0-1.704a1.001 1.001 0 000 2c.552 0 1.004-.453 1.004-1.004 0-.552-.452-.996-1.004-.996zM120.077 146.704a.708.708 0 01-.71-.7.71.71 0 01.71-.708.704.704 0 110 1.408zm0-1.704c-.553 0-1 .453-1 1.004 0 .552.447.996 1 .996.554 0 1-.444 1-.996 0-.551-.446-1.004-1-1.004zM126.077 146.71a.71.71 0 110-1.42.71.71 0 010 1.42zm0-1.71c-.553 0-1 .446-1 1s.447 1 1 1c.554 0 1-.446 1-1s-.446-1-1-1zM134.081 146.704a.703.703 0 110-1.408c.387 0 .7.313.7.7a.7.7 0 01-.7.708zm0-1.704c-.551 0-1.004.444-1.004.996 0 .551.453 1.004 1.004 1.004a1.001 1.001 0 000-2zM140.073 145.296a.708.708 0 110 1.416.708.708 0 010-1.416zm0 1.704c.552 0 1.004-.444 1.004-.996 0-.551-.452-1.004-1.004-1.004a1.001 1.001 0 000 2zM146.077 145.29a.71.71 0 110 1.422.71.71 0 010-1.423zm0 1.71c.554 0 1-.446 1-1s-.446-1-1-1c-.553 0-1 .446-1 1s.447 1 1 1zM87.081 153.71a.71.71 0 01-.707-.71.71.71 0 01.707-.71c.387 0 .7.322.7.71 0 .388-.313.71-.7.71zm0-1.71c-.551 0-1.004.446-1.004 1s.453 1 1.004 1a.996.996 0 00.996-1c0-.554-.444-1-.996-1zM94.073 153.704a.7.7 0 01-.7-.708c0-.387.313-.7.7-.7a.703.703 0 110 1.407zm0-1.704a1.001 1.001 0 000 2c.552 0 1.004-.453 1.004-1.004 0-.552-.452-.996-1.004-.996zM101.077 153.712a.715.715 0 01-.71-.708.71.71 0 01.71-.708.71.71 0 01.711.708.715.715 0 01-.71.708zm0-1.712c-.553 0-1 .453-1 1.004 0 .552.447.996 1 .996.554 0 1-.444 1-.996 0-.551-.446-1.004-1-1.004zM107.081 153.71a.704.704 0 01-.707-.71.71.71 0 01.707-.71.71.71 0 010 1.421zm0-1.71c-.551 0-1.004.446-1.004 1s.453 1 1.004 1a.996.996 0 00.996-1c0-.554-.444-1-.996-1zM114.073 153.704a.7.7 0 01-.7-.708c0-.387.313-.7.7-.7a.703.703 0 110 1.407zm0-1.704a1.001 1.001 0 000 2c.552 0 1.004-.453 1.004-1.004 0-.552-.452-.996-1.004-.996zM120.077 153.71a.71.71 0 110-1.422.71.71 0 010 1.423zm0-1.71c-.553 0-1 .446-1 1s.447 1 1 1c.554 0 1-.446 1-1s-.446-1-1-1zM126.077 153.704a.704.704 0 01-.71-.708.71.71 0 01.71-.708c.389 0 .711.321.711.708a.71.71 0 01-.71.708zm0-1.704c-.553 0-1 .444-1 .996 0 .551.447 1.004 1 1.004.554 0 1-.453 1-1.004a.996.996 0 00-1-.996zM134.081 153.704a.703.703 0 11.7-.7c0 .387-.313.7-.7.7zm0-1.704c-.551 0-1.004.453-1.004 1.004a1.001 1.001 0 002 0c0-.551-.444-1.004-.996-1.004zM140.073 152.29a.71.71 0 01.708.71.71.71 0 01-.708.71.715.715 0 01-.708-.71c0-.388.321-.71.708-.71zm0 1.71c.552 0 1.004-.446 1.004-1s-.452-1-1.004-1a.996.996 0 00-.996 1c0 .554.445 1 .996 1zM146.077 152.296c.389 0 .711.313.711.7a.71.71 0 01-.71.708.71.71 0 01-.711-.708c0-.387.322-.7.71-.7zm0 1.704c.554 0 1-.453 1-1.004a.996.996 0 00-1-.996c-.553 0-1 .444-1 .996 0 .551.447 1.004 1 1.004zM87.081 161.71a.704.704 0 01-.707-.71.71.71 0 01.707-.71c.387 0 .7.322.7.71 0 .397-.313.71-.7.71zm0-1.71c-.551 0-1.004.446-1.004 1s.453 1 1.004 1a.996.996 0 00.996-1c0-.554-.444-1-.996-1zM94.073 161.704a.699.699 0 01-.7-.7.703.703 0 11.7.7zm0-1.704a1.001 1.001 0 000 2c.552 0 1.004-.444 1.004-.996 0-.551-.452-1.004-1.004-1.004zM101.077 161.71a.716.716 0 01-.71-.71c0-.388.322-.71.71-.71.389 0 .711.322.711.71 0 .388-.322.71-.71.71zm0-1.71c-.553 0-1 .446-1 1s.447 1 1 1c.554 0 1-.446 1-1s-.446-1-1-1zM107.081 161.704a.703.703 0 110-1.408c.387 0 .708.313.708.7a.708.708 0 01-.708.708zm0-1.704c-.551 0-1.004.444-1.004.996 0 .551.453 1.004 1.004 1.004a1.001 1.001 0 000-2zM114.073 161.712a.706.706 0 01-.7-.708.703.703 0 111.407 0 .708.708 0 01-.707.708zm0-1.712a1.001 1.001 0 000 2c.552 0 1.004-.444 1.004-.996 0-.551-.452-1.004-1.004-1.004zM120.077 161.71a.716.716 0 01-.71-.71.71.71 0 11.71.71zm0-1.71c-.553 0-1 .446-1 1s.447 1 1 1c.554 0 1-.446 1-1s-.446-1-1-1zM126.077 161.704a.704.704 0 110-1.408c.389 0 .711.313.711.7a.71.71 0 01-.71.708zm0-1.704c-.553 0-1 .444-1 .996 0 .551.447 1.004 1 1.004.554 0 1-.453 1-1.004a.996.996 0 00-1-.996zM134.081 161.712a.708.708 0 110-1.416.7.7 0 01.7.708.706.706 0 01-.7.708zm0-1.712c-.551 0-1.004.453-1.004 1.004a1.001 1.001 0 002 0c0-.551-.444-1.004-.996-1.004zM140.073 160.288a.708.708 0 110 1.416.708.708 0 010-1.416zm0 1.712c.552 0 1.004-.453 1.004-1.004a1.001 1.001 0 00-2 0c0 .551.445 1.004.996 1.004zM146.077 160.296c.389 0 .711.313.711.7a.71.71 0 01-.71.708.71.71 0 01-.711-.708c0-.387.322-.7.71-.7zm0 1.704c.554 0 1-.453 1-1.004a.996.996 0 00-1-.996c-.553 0-1 .444-1 .996 0 .551.447 1.004 1 1.004zM82.077 167.996c0-.506-.286-.921-.656-.996-.019.1-.038.19-.05.29.273.042.483.34.483.706 0 .39-.248.714-.547.714a.44.44 0 01-.179-.042c-.019.1-.032.19-.05.29a.68.68 0 00.229.042c.426 0 .77-.448.77-1.004M87.081 168.704a.703.703 0 110-1.408c.387 0 .7.313.7.7a.7.7 0 01-.7.708zm0-1.704c-.551 0-1.004.444-1.004.996 0 .551.453 1.004 1.004 1.004a1.001 1.001 0 000-2zM94.073 168.71a.708.708 0 01-.7-.71.704.704 0 111.407 0 .71.71 0 01-.707.71zm0-1.71a.996.996 0 00-.996 1c0 .554.445 1 .996 1 .552 0 1.004-.446 1.004-1s-.452-1-1.004-1zM101.077 168.71a.71.71 0 110-1.42.71.71 0 010 1.42zm0-1.71c-.553 0-1 .446-1 1s.447 1 1 1c.554 0 1-.446 1-1s-.446-1-1-1zM107.081 168.704a.703.703 0 110-1.407c.387 0 .708.312.708.707 0 .387-.32.7-.708.7zm0-1.704c-.551 0-1.004.453-1.004 1.004a1.001 1.001 0 002 0c0-.551-.444-1.004-.996-1.004zM114.073 168.71a.708.708 0 01-.7-.71.704.704 0 111.407 0 .71.71 0 01-.707.71zm0-1.71a.996.996 0 00-.996 1c0 .554.445 1 .996 1 .552 0 1.004-.446 1.004-1s-.452-1-1.004-1zM120.077 168.704a.71.71 0 01-.71-.708.71.71 0 011.421 0 .704.704 0 01-.71.708zm0-1.704c-.553 0-1 .444-1 .996 0 .551.447 1.004 1 1.004.554 0 1-.453 1-1.004a.996.996 0 00-1-.996zM126.077 168.704a.704.704 0 110-1.407.71.71 0 01.711.707c0 .387-.322.7-.71.7zm0-1.704c-.553 0-1 .453-1 1.004 0 .552.447.996 1 .996.554 0 1-.444 1-.996 0-.551-.446-1.004-1-1.004zM134.081 168.71a.71.71 0 01-.707-.71.71.71 0 01.707-.71c.387 0 .7.322.7.71 0 .388-.313.71-.7.71zm0-1.71c-.551 0-1.004.446-1.004 1s.453 1 1.004 1a.996.996 0 00.996-1c0-.554-.444-1-.996-1zM140.073 167.296a.703.703 0 110 1.407.708.708 0 01-.708-.707c0-.387.321-.7.708-.7zm0 1.704c.552 0 1.004-.453 1.004-1.004a1.001 1.001 0 00-2 0c0 .551.445 1.004.996 1.004zM146.077 167.296a.71.71 0 01.711.708c0 .387-.322.7-.71.7a.708.708 0 01-.711-.7.71.71 0 01.71-.708zm0 1.704c.554 0 1-.444 1-.996 0-.551-.446-1.004-1-1.004-.553 0-1 .453-1 1.004 0 .552.447.996 1 .996zM151.812 169c-.01-.11-.02-.227-.04-.337a.297.297 0 01-.07-.193l.03-.133c-.01-.11-.03-.221-.04-.337-.21.122-.35.287-.35.47 0 .215.19.408.47.53M80.077 176.704a.71.71 0 01-.71-.708c0-.387.322-.708.71-.708.389 0 .711.321.711.708a.71.71 0 01-.71.708zm0-1.704c-.553 0-1 .444-1 .996 0 .551.447 1.004 1 1.004.554 0 1-.453 1-1.004a.996.996 0 00-1-.996zM87.081 176.704a.703.703 0 11.7-.7c0 .387-.313.7-.7.7zm0-1.704c-.551 0-1.004.453-1.004 1.004a1.001 1.001 0 002 0c0-.551-.444-1.004-.996-1.004zM94.073 176.71a.708.708 0 01-.7-.71c0-.388.313-.71.7-.71a.71.71 0 01.708.71.71.71 0 01-.708.71zm0-1.71a.996.996 0 00-.996 1c0 .554.445 1 .996 1 .552 0 1.004-.446 1.004-1s-.452-1-1.004-1zM101.077 176.704a.71.71 0 01-.71-.708c0-.387.322-.7.71-.7.389 0 .711.313.711.7a.71.71 0 01-.71.708zm0-1.704c-.553 0-1 .444-1 .996 0 .551.447 1.004 1 1.004.554 0 1-.453 1-1.004a.996.996 0 00-1-.996zM107.081 176.712a.708.708 0 110-1.416.708.708 0 010 1.416zm0-1.712c-.551 0-1.004.453-1.004 1.004a1.001 1.001 0 002 0c0-.551-.444-1.004-.996-1.004zM114.073 176.71a.708.708 0 01-.7-.71c0-.388.313-.71.7-.71a.71.71 0 01.708.71.71.71 0 01-.708.71zm0-1.71a.996.996 0 00-.996 1c0 .554.445 1 .996 1 .552 0 1.004-.446 1.004-1s-.452-1-1.004-1zM120.077 176.704a.71.71 0 01-.71-.708c0-.387.322-.7.71-.7a.704.704 0 110 1.407zm0-1.704c-.553 0-1 .444-1 .996 0 .551.447 1.004 1 1.004.554 0 1-.453 1-1.004a.996.996 0 00-1-.996zM126.077 176.71a.71.71 0 110-1.42.71.71 0 010 1.42zm0-1.71c-.553 0-1 .446-1 1s.447 1 1 1c.554 0 1-.446 1-1s-.446-1-1-1zM134.081 175.71a.704.704 0 01-.707-.71.71.71 0 01.707-.71c.387 0 .7.322.7.71 0 .397-.313.71-.7.71zm0-1.71c-.551 0-1.004.446-1.004 1s.453 1 1.004 1a.996.996 0 00.996-1c0-.554-.444-1-.996-1zM140.073 174.296a.703.703 0 110 1.408.706.706 0 01-.708-.7c0-.395.321-.708.708-.708zm0 1.704c.552 0 1.004-.444 1.004-.996 0-.551-.452-1.004-1.004-1.004a1.001 1.001 0 000 2zM146.077 174.29c.389 0 .711.322.711.71 0 .388-.322.71-.71.71a.716.716 0 01-.711-.71c0-.388.322-.71.71-.71zm0 1.71c.554 0 1-.446 1-1s-.446-1-1-1c-.553 0-1 .446-1 1s.447 1 1 1zM151.077 174.983c0 .53.44.967 1 1.017l-.027-.303c-.367-.067-.642-.36-.642-.714 0-.31.22-.58.522-.68-.009-.101-.009-.202-.018-.303-.477.118-.835.513-.835.983M94.014 183.055c-.391 0-.746.23-.937.58l.364.06a.719.719 0 01.573-.29c.309 0 .581.2.709.49.118.02.236.03.354.05-.127-.51-.554-.89-1.063-.89M101.077 182c-.553 0-1 .33-1 .73l.017.138c.107.012.206.018.314.024a.39.39 0 01-.041-.161c0-.288.322-.515.71-.515.389 0 .711.227.711.515 0 .09-.033.173-.09.251l.313.018a.605.605 0 00.066-.27c0-.4-.446-.73-1-.73M107.081 184.917c-.395 0-.707-.361-.707-.797 0-.435.312-.796.707-.796.387 0 .708.361.708.796 0 .436-.32.797-.708.797zm.996-.797c0-.62-.444-1.12-.996-1.12-.551 0-1.004.5-1.004 1.12 0 .306.115.584.297.787.436.037.88.065 1.325.093.23-.204.378-.519.378-.88zM114.073 184.704a.7.7 0 01-.7-.708c0-.387.313-.708.7-.708a.708.708 0 110 1.416zm0-1.704a1.001 1.001 0 000 2c.552 0 1.004-.453 1.004-1.004 0-.552-.452-.996-1.004-.996zM120.077 184.704a.708.708 0 01-.71-.7.71.71 0 01.71-.708.704.704 0 110 1.408zm0-1.704c-.553 0-1 .453-1 1.004 0 .552.447.996 1 .996.554 0 1-.444 1-.996 0-.551-.446-1.004-1-1.004zM126.077 184.71a.71.71 0 110-1.42.71.71 0 010 1.42zm0-1.71c-.553 0-1 .446-1 1s.447 1 1 1c.554 0 1-.446 1-1s-.446-1-1-1zM134.081 184.704a.703.703 0 110-1.408c.387 0 .7.313.7.7a.7.7 0 01-.7.708zm0-1.704c-.551 0-1.004.444-1.004.996 0 .551.453 1.004 1.004 1.004a1.001 1.001 0 000-2zM140.073 184.926c-.387 0-.708-.361-.708-.796 0-.445.321-.797.708-.797.395 0 .708.352.708.797 0 .435-.313.796-.708.796zm0-1.926c-.551 0-.996.51-.996 1.13 0 .351.148.666.37.87l1.367-.111c.156-.204.263-.472.263-.76 0-.62-.452-1.129-1.004-1.129zM146.077 182c-.553 0-1 .348-1 .78 0 .078.009.149.033.22.1-.013.199-.02.298-.032a.483.483 0 01-.041-.187c0-.304.322-.555.71-.555.389 0 .711.251.711.555l-.008.032c.107-.007.198-.02.297-.032 0-.433-.446-.781-1-.781"/>
        <path fill="#FFA9A6" d="M139.265 23.029s2.674-4.19 4.36-2.714c1.685 1.474-1.686 15.77-4.36 13.426-2.673-2.334 0-10.712 0-10.712M108.996 27.69c0-.936-1.694-9.594-4.166-7.307-2.472 2.288 1.733 16.636 4.166 14.377 2.433-2.25 0-7.07 0-7.07"/>
        <path fill="#FFB6B6" d="M113.433 35.007s-2.115 34.458-1.062 38.107c1.062 3.648 18.72 6.52 20.289 0 .94-3.916 0-39.114 0-39.114l-19.227 1.007"/>
        <path fill="#FFA9A6" d="M132.752 34l-19.042 1.03s-.316 5.284-.633 11.986c1.89 3.771 4.43 6.825 7.855 8.186 5.221 2.07 9.223-.114 12.145-3.933-.111-9.036-.325-17.269-.325-17.269"/>
        <path fill="#FFB6B6" d="M124.67 4.145c-.733.056-7.55-1.174-13.78 5.171-3.422 3.476-4.813 5.991-4.813 9.541 0 3.55 1.217 26.265 14.804 30.449 13.587 4.192 19.79-11.675 20.67-18.905.878-7.23.393-5.47.393-12.82 0-7.36-1.3-14.712-17.275-13.436"/>
        <path fill="#774675" d="M126.077 1.707s-.559 7.983-6.195 11.979C114.236 17.673 104.817 27 104.817 27s-2.208-1.989-1.65-6.52c.55-4.533-.754-7.439 2.134-11.108 1.845-2.352 15.578-13.596 20.776-7.665"/>
        <path fill="#723D6D" d="M143.543 25s1.04-3.601.218-11.024c-.823-7.423-9.244-16.04-18.11-11.898 0 0-3.024 1.305-.69 3.574 2.326 2.26 12.93 9.086 14.613 12.366 1.682 3.27 3.97 6.982 3.97 6.982M95.271 56.444s-8.544 5.709-3.715 10.46c4.839 4.742 11.21 8.016 11.21 8.016s-4.737 6.602-3.083 8.234c1.653 1.624 9.045 5.846 9.045 5.846s7.272-9.685 3.01-13.861c-4.263-4.186-5.452-.876-5.452-.876s9.157-9.347 5.451-12.995c-3.715-3.648-14.896-6.374-16.466-4.824M107.879 93.444s-.802 5.437-.802 10.771c0 5.335.802 9.415.802 9.415h3.696v-7.711L114.49 118l7.76-.365-4.63-12.97 3.961 6.812 6.497-1.703s-9.873-12.802-12.22-16.33c-2.34-3.528-5.989-3.444-5.989-3.444s-1.99.814-1.99 3.444"/>
        <path fill="#FBB03B" d="M114.63 87.84c1.139 2.002.028 4.814-2.484 6.292-2.513 1.468-5.477 1.029-6.616-.973-1.148-2.001-.038-4.813 2.484-6.29 2.513-1.469 5.477-1.03 6.616.972"/>
        <path fill="#723D6D" d="M129.077 41c0 1.663-1.344 3-3.005 3a2.996 2.996 0 01-2.995-3c0-1.653 1.345-3 2.995-3a3.004 3.004 0 013.005 3"/>
        <path fill="#723D6D" d="M125.593 41c-2.758 0-4.218-.497-4.304-.528-.22-.082-.276-.235-.133-.353.143-.123.439-.154.658-.077.029.01 2.997 1.004 8.636-.026.248-.046.515.026.601.16.086.132-.048.276-.296.322-2.051.374-3.769.502-5.162.502M117.039 27c-2.271 0-3.81-1.32-3.836-1.335a.365.365 0 010-.552.5.5 0 01.628 0c.115.101 2.925 2.485 6.531-.03a.49.49 0 01.619.061c.15.171.124.412-.07.552-1.415.978-2.732 1.304-3.872 1.304M132.039 27c-2.271 0-3.81-1.32-3.836-1.335a.365.365 0 010-.552.5.5 0 01.628 0c.115.101 2.925 2.485 6.531-.03a.49.49 0 01.619.061c.15.171.124.412-.07.552-1.415.978-2.732 1.304-3.872 1.304M121.326 33l-.192-.052c-.09-.063-.07-.15.04-.201 1.873-.875 4.944-1.11 6.837 0 .09.057.09.15-.01.207a.399.399 0 01-.353-.006c-1.691-.99-4.46-.77-6.161.023l-.161.029M120.077 19.864s-2.441-1.235-4.4-.752c-1.958.482-3.035.993-2.433 1.688.61.685 2.111-.608 3.332-.608 1.22 0 3.501-.328 3.501-.328M130.077 19.542s2.863-.798 4.708-.457c1.844.345 2.292.569 2.292.854 0 .284-1.396-.524-3.505-.326-2.099.198-3.495-.07-3.495-.07"/>
    </g>
</svg>
